<svg width="190" height="190" viewBox="0 0 190 190" fill="none" xmlns="http://www.w3.org/2000/svg">
<path d="M187.406 95C188.838 95 190.004 96.1621 189.965 97.5944C189.39 118.65 181.83 138.947 168.436 155.267C154.493 172.257 135.09 183.887 113.534 188.175C91.9771 192.462 69.6008 189.143 50.2173 178.783C30.8338 168.422 15.6424 151.661 7.23145 131.355C-1.17946 111.049 -2.28943 88.4553 4.09067 67.423C10.4708 46.3906 23.9462 28.2211 42.2208 16.0104C60.4955 3.79965 82.4387 -1.69684 104.312 0.45745C125.323 2.52686 145.02 11.5331 160.316 26.0153C161.356 27.0005 161.354 28.6462 160.341 29.6593V29.6593C159.327 30.6725 157.687 30.6693 156.645 29.6858C142.2 16.0515 123.619 7.57296 103.803 5.62122C83.1248 3.58459 62.3801 8.78087 45.1035 20.3247C27.827 31.8685 15.0876 49.0456 9.05599 68.9292C3.02437 88.8128 4.07371 110.173 12.0252 129.369C19.9767 148.566 34.3384 164.412 52.6633 174.206C70.9881 184.001 92.1423 187.139 112.521 183.086C132.9 179.032 151.243 168.037 164.425 151.976C177.057 136.583 184.2 117.45 184.774 97.5944C184.815 96.1622 185.973 95 187.406 95V95Z" fill="#EEEEEE"/>
<path d="M186.956 92.1516C188.612 92.1003 189.918 90.7152 189.814 89.0615C188.499 68.0599 180.246 48.0851 166.353 32.2805C165.259 31.0361 163.357 30.9767 162.147 32.1093L158.222 35.7859C157.013 36.9185 156.955 38.8138 158.044 40.0629C170.051 53.8414 177.215 71.1787 178.435 89.4142C178.546 91.0674 179.924 92.3694 181.58 92.3181L186.956 92.1516Z" fill="#EEEEEE"/>
<path d="M44.653 68.3998C53.7833 51.4 81.8142 46.5445 94.0873 69.9663C94.4808 70.7172 95.5993 70.7293 96.0068 69.9859C108.272 47.6092 135.775 50.5462 145.407 68.3999C162.86 100.751 127.159 123.922 95.6826 150.449C95.3063 150.766 94.7609 150.767 94.3873 150.447C67.4203 127.327 26.0565 101.871 44.653 68.3998Z" stroke="#EEEEEE" stroke-width="5"/>
</svg>
